<svg xmlns="http://www.w3.org/2000/svg" width="44.364" height="49.294" viewBox="0 0 44.364 49.294"><g transform="translate(-67 -953)"><path d="M53.184,14.1H48.255V9.167H43.325V14.1H28.538V9.167H23.608V14.1H18.679a4.935,4.935,0,0,0-4.929,4.929V53.531a4.935,4.935,0,0,0,4.929,4.929H53.185a4.935,4.935,0,0,0,4.929-4.929V19.025A4.935,4.935,0,0,0,53.185,14.1Zm0,39.434H18.679V23.955H53.185l0,29.576Z" transform="translate(53.25 943.833)" fill="#fafafa"/><path d="M50.417,45.833h4.929V58.156H50.417Zm0,14.788h4.929V65.55H50.417Z" transform="translate(36.301 926.884)" fill="#fafafa"/></g></svg>