<svg xmlns="http://www.w3.org/2000/svg" width="40.75" height="40.75" viewBox="0 0 40.75 40.75"><path d="M31.245,14.941a1.367,1.367,0,0,0-.649-.9,1.434,1.434,0,0,0-1.1-.171,42.758,42.758,0,0,1-9.119,1.41,42.758,42.758,0,0,1-9.119-1.41,1.434,1.434,0,0,0-1.1.171,1.367,1.367,0,0,0-.649.9,1.434,1.434,0,0,0,.171,1.1,1.367,1.367,0,0,0,.9.649,60.853,60.853,0,0,0,6.89,1.319,57.828,57.828,0,0,1-.352,6.117,25.232,25.232,0,0,1-.6,3.536q-.3,1.012-.933,2.626l-.2.478a1.358,1.358,0,0,0,.023,1.114,1.466,1.466,0,0,0,.818.773,1.3,1.3,0,0,0,.523.091,1.35,1.35,0,0,0,1.364-.933l.182-.455a26.72,26.72,0,0,0,1.614-5.89h.955a26.8,26.8,0,0,0,1.614,5.89l.182.455a1.35,1.35,0,0,0,1.364.933,1.3,1.3,0,0,0,.523-.091,1.466,1.466,0,0,0,.818-.773,1.358,1.358,0,0,0,.023-1.114l-.2-.478q-.637-1.614-.933-2.626a25.393,25.393,0,0,1-.6-3.536,57.829,57.829,0,0,1-.352-6.117,60.854,60.854,0,0,0,6.89-1.319,1.367,1.367,0,0,0,.9-.649,1.434,1.434,0,0,0,.171-1.1Zm-7.959-3.3a2.911,2.911,0,0,0-4.969-2.059,2.912,2.912,0,0,0,0,4.117,2.91,2.91,0,0,0,4.968-2.058Zm13.1,8.732a15.725,15.725,0,0,1-1.262,6.219A15.673,15.673,0,0,1,26.6,35.121a15.949,15.949,0,0,1-12.439,0A15.673,15.673,0,0,1,5.629,26.6a15.949,15.949,0,0,1,0-12.439,15.673,15.673,0,0,1,8.527-8.527,15.949,15.949,0,0,1,12.439,0,15.673,15.673,0,0,1,8.527,8.527A15.721,15.721,0,0,1,36.384,20.375ZM20.375,2.91A17,17,0,0,0,13.6,4.3a17.272,17.272,0,0,0-9.3,9.3,17.254,17.254,0,0,0,0,13.554,17.259,17.259,0,0,0,9.3,9.3,17.254,17.254,0,0,0,13.554,0,17.7,17.7,0,0,0,5.571-3.73,17.533,17.533,0,0,0,3.73-5.571,17.254,17.254,0,0,0,0-13.554,17.259,17.259,0,0,0-9.3-9.3A16.953,16.953,0,0,0,20.376,2.91ZM40.75,20.375a19.922,19.922,0,0,1-1.614,7.913A20.016,20.016,0,0,1,28.288,39.136a20.2,20.2,0,0,1-15.827,0A20.016,20.016,0,0,1,1.614,28.288a20.2,20.2,0,0,1,0-15.827A20.016,20.016,0,0,1,12.462,1.614a20.2,20.2,0,0,1,15.827,0A20.016,20.016,0,0,1,39.136,12.462,19.922,19.922,0,0,1,40.75,20.375Z" fill="#fafafa"/></svg>