<svg xmlns="http://www.w3.org/2000/svg" width="40.219" height="55.301" viewBox="0 0 40.219 55.301"><g transform="translate(-67.001 -1081.699)"><path d="M53.076,68.163V27.944a5.033,5.033,0,0,0-5.028-5.028H27.939a5.033,5.033,0,0,0-5.028,5.028V68.162L37.993,59.11l15.082,9.052Z" transform="translate(44.09 1068.837)" fill="#fafafa"/><path d="M57.8,9.611h3.554a5.033,5.033,0,0,1,5.028,5.028V40.889l5.028,6.257V9.611a5.033,5.033,0,0,0-5.028-5.028H46.273a5.033,5.033,0,0,0-5.028,5.028Z" transform="translate(35.811 1077.116)" fill="#fafafa"/></g></svg>