<svg xmlns="http://www.w3.org/2000/svg" width="48.422" height="48.422" viewBox="0 0 48.422 48.422"><g transform="translate(-67 -1636)"><path d="M25.73,48.422H22.691a4.463,4.463,0,0,1-4.458-4.458V42.936a19.548,19.548,0,0,1-3.036-1.26l-.729.729a4.458,4.458,0,0,1-6.3,0L6.017,40.256a4.457,4.457,0,0,1,0-6.3l.728-.728a19.55,19.55,0,0,1-1.26-3.036H4.458A4.463,4.463,0,0,1,0,25.73V22.691a4.463,4.463,0,0,1,4.458-4.458H5.486A19.554,19.554,0,0,1,6.746,15.2l-.729-.729a4.458,4.458,0,0,1,0-6.3L8.166,6.017a4.457,4.457,0,0,1,6.3,0l.728.728a19.567,19.567,0,0,1,3.036-1.26V4.458A4.463,4.463,0,0,1,22.692,0H25.73a4.463,4.463,0,0,1,4.458,4.458V5.486a19.548,19.548,0,0,1,3.036,1.26l.729-.729a4.458,4.458,0,0,1,6.3,0L42.4,8.166a4.457,4.457,0,0,1,0,6.3l-.728.728a19.55,19.55,0,0,1,1.26,3.036h1.028a4.463,4.463,0,0,1,4.458,4.458V25.73a4.463,4.463,0,0,1-4.458,4.458H42.936a19.554,19.554,0,0,1-1.26,3.036l.729.729a4.458,4.458,0,0,1,0,6.3L40.256,42.4a4.457,4.457,0,0,1-6.3,0l-.728-.728a19.567,19.567,0,0,1-3.036,1.26v1.028A4.463,4.463,0,0,1,25.73,48.422ZM15.673,38.7a16.722,16.722,0,0,0,4.334,1.8,1.419,1.419,0,0,1,1.064,1.374v2.095a1.622,1.622,0,0,0,1.62,1.62H25.73a1.622,1.622,0,0,0,1.62-1.62V41.87A1.419,1.419,0,0,1,28.415,40.5a16.722,16.722,0,0,0,4.334-1.8,1.419,1.419,0,0,1,1.725.218L35.958,40.4a1.62,1.62,0,0,0,2.291,0L40.4,38.25a1.62,1.62,0,0,0,0-2.291l-1.484-1.484a1.419,1.419,0,0,1-.218-1.725,16.719,16.719,0,0,0,1.8-4.334,1.419,1.419,0,0,1,1.374-1.064h2.095a1.622,1.622,0,0,0,1.62-1.62V22.692a1.622,1.622,0,0,0-1.62-1.62H41.87A1.419,1.419,0,0,1,40.5,20.007a16.722,16.722,0,0,0-1.8-4.334,1.419,1.419,0,0,1,.218-1.725L40.4,12.464a1.62,1.62,0,0,0,0-2.291L38.25,8.023a1.62,1.62,0,0,0-2.291,0L34.475,9.507a1.419,1.419,0,0,1-1.725.218,16.722,16.722,0,0,0-4.334-1.8,1.419,1.419,0,0,1-1.064-1.374V4.458a1.622,1.622,0,0,0-1.62-1.62H22.692a1.622,1.622,0,0,0-1.62,1.62V6.552a1.419,1.419,0,0,1-1.064,1.374,16.722,16.722,0,0,0-4.334,1.8,1.419,1.419,0,0,1-1.725-.218L12.464,8.023a1.62,1.62,0,0,0-2.291,0L8.023,10.172a1.62,1.62,0,0,0,0,2.291l1.484,1.484a1.419,1.419,0,0,1,.218,1.725,16.719,16.719,0,0,0-1.8,4.334,1.419,1.419,0,0,1-1.374,1.064H4.458a1.622,1.622,0,0,0-1.62,1.62V25.73a1.622,1.622,0,0,0,1.62,1.62H6.552a1.419,1.419,0,0,1,1.374,1.064,16.722,16.722,0,0,0,1.8,4.334,1.419,1.419,0,0,1-.218,1.725L8.023,35.958a1.62,1.62,0,0,0,0,2.291L10.172,40.4a1.62,1.62,0,0,0,2.291,0l1.484-1.484a1.425,1.425,0,0,1,1.725-.218Z" transform="translate(67 1636)" fill="#fafafa"/><path d="M155.136,165.671a10.536,10.536,0,1,1,10.536-10.536A10.547,10.547,0,0,1,155.136,165.671Zm0-18.234a7.7,7.7,0,1,0,7.7,7.7A7.707,7.707,0,0,0,155.136,147.437Z" transform="translate(-63.924 1505.075)" fill="#fafafa"/></g></svg>