<svg xmlns="http://www.w3.org/2000/svg" width="59.036" height="59" viewBox="0 0 59.036 59"><g transform="translate(-0.004 0.044)"><g transform="translate(0.004 -0.044)"><path d="M89.856,99.711c-2.869,0-5.741-.052-8.605.025-1.217.032-1.315-.441-1.165-1.478a5.223,5.223,0,0,1,3.492-4.224,19.23,19.23,0,0,0,2.64-1.286c1.015-.635,1.064-1.249.335-2.17a5,5,0,0,1-1.15-3.409,4.619,4.619,0,0,0-.667-3.007c-.667-1-.278-2.377-.222-3.608.015-.443.411-.672.766-.246a2.266,2.266,0,0,0,2.012.648c1.433,0,2.869-.017,4.3.012a2.505,2.505,0,0,1,2.685,2.694c.025,1.231-.025,2.463.015,3.694a4.315,4.315,0,0,1-1.209,3.251c-.771.8-.446,1.382.131,1.995a4.588,4.588,0,0,0,1.539.985,18.255,18.255,0,0,1,3.059,1.561,4.826,4.826,0,0,1,1.864,3.83c.086.759-.463.719-.97.719Z" transform="translate(-60.321 -60.347)" fill="#fafafa"/><path d="M123.873,7.021c0-2.049.039-4.1-.017-6.157-.022-.793.224-.961.985-.894a31.772,31.772,0,0,1,11.083,2.99c.714.342.83.608.4,1.332-2.089,3.515-4.12,7.064-6.145,10.618-.352.618-.628.906-1.392.51a11.4,11.4,0,0,0-4.125-1.111c-.633-.069-.793-.293-.783-.9C123.89,11.3,123.876,9.151,123.873,7.021Z" transform="translate(-93.351 0.044)" fill="#fafafa"/><path d="M7.064,76.871c-2.089,0-4.187-.025-6.263.015-.66,0-.842-.2-.788-.84A30.932,30.932,0,0,1,3.1,64.643c.3-.6.544-.635,1.089-.3q5.446,3.2,10.923,6.322c.475.271.768.463.446,1.113A11.886,11.886,0,0,0,14.4,76.014c-.067.764-.392.9-1.084.884C11.241,76.842,9.152,76.871,7.064,76.871Z" transform="translate(-0.004 -48.325)" fill="#fafafa"/><path d="M124,184.732c0-2.086.025-4.175,0-6.261,0-.653.143-.9.847-.985a12.9,12.9,0,0,0,4.234-1.162c.493-.232.751-.227,1.054.305q3.148,5.542,6.372,11.036c.36.608.182.808-.367,1.079a31.033,31.033,0,0,1-11.29,3.022c-.64.054-.862-.113-.85-.781C124.021,188.91,124,186.821,124,184.732Z" transform="translate(-93.459 -132.776)" fill="#fafafa"/><path d="M35.487,159.292c-.1.177-.195.357-.3.534-2.064,3.579-4.148,7.142-6.184,10.741-.394.7-.682.791-1.364.318a31.011,31.011,0,0,1-7.948-7.945c-.47-.682-.51-1.025.293-1.478,3.566-1.99,7.1-4.066,10.637-6.115.426-.246.771-.557,1.2.086a13.558,13.558,0,0,0,3.276,3.3C35.29,158.866,35.554,158.979,35.487,159.292Z" transform="translate(-14.59 -116.852)" fill="#fafafa"/><path d="M184.8,76.873c-2.089,0-4.175-.017-6.263,0-.589,0-.86-.131-.936-.788a13.925,13.925,0,0,0-1.195-4.359c-.232-.493-.121-.722.315-.97q5.586-3.2,11.157-6.443c.392-.227.638-.246.872.209a30.593,30.593,0,0,1,3.15,11.64c.054.675-.335.709-.837.707C188.977,76.866,186.891,76.873,184.8,76.873Z" transform="translate(-132.872 -48.344)" fill="#fafafa"/><path d="M169.759,161.158c-.126.212-.246.431-.377.631a28.277,28.277,0,0,1-7.487,7.529c-.608.419-.83.305-1.17-.291q-2.618-4.64-5.327-9.231c-.318-.544-.261-.813.246-1.175a12.662,12.662,0,0,0,3.111-3.113c.369-.532.648-.552,1.177-.246,3.061,1.8,6.157,3.569,9.221,5.352C169.377,160.754,169.683,160.815,169.759,161.158Z" transform="translate(-116.977 -116.861)" fill="#fafafa"/><path d="M34.276,25.61c.365.086.441.384.576.621C36.633,29.3,38.4,32.388,40.2,35.452c.281.493.271.759-.212,1.1a13.127,13.127,0,0,0-3.2,3.2c-.323.453-.574.552-1.086.246-3.106-1.827-6.224-3.616-9.337-5.409-.379-.219-.69-.379-.332-.916a27.338,27.338,0,0,1,7.844-7.83C34.008,25.753,34.151,25.679,34.276,25.61Z" transform="translate(-19.5 -19.292)" fill="#fafafa"/><path d="M85.965,28.218c0,1.266.4,2.734-.113,3.744s-2.2.552-3.32.973c-.776.288-1.655,1.079-2.342.69-.645-.367-.924-1.389-1.355-2.128-.8-1.362-1.576-2.766-2.4-4.128-.3-.493-.409-.8.261-1.108a25.614,25.614,0,0,1,8.593-2.283c.557-.052.707.163.7.682-.025,1.187,0,2.372,0,3.559Z" transform="translate(-57.433 -18.055)" fill="#fafafa"/><path d="M181.8,123.75c1.066,0,2.133.022,3.2,0,.64-.017.872.246.847.874A22.453,22.453,0,0,1,183.667,133c-.224.493-.493.579-.948.313q-2.975-1.724-5.963-3.448a.637.637,0,0,1-.315-.985,14.179,14.179,0,0,0,1.17-4.246c.1-.778.448-.924,1.121-.9C179.753,123.777,180.78,123.75,181.8,123.75Z" transform="translate(-132.897 -93.245)" fill="#fafafa"/><path d="M164.544,52.969c-.067.276-.318.337-.517.453-1.414.82-2.84,1.616-4.234,2.463-.453.276-.695.219-.985-.2a13.423,13.423,0,0,0-3.281-3.278c-.436-.308-.448-.557-.187-.985.845-1.4,1.648-2.82,2.463-4.234.182-.318.293-.67.8-.32a21.92,21.92,0,0,1,5.766,5.788C164.426,52.75,164.485,52.861,164.544,52.969Z" transform="translate(-116.951 -35.203)" fill="#fafafa"/><path d="M89.148,180.68v1.106c0,2.217,0,2.234-2.217,1.889a22.905,22.905,0,0,1-5.95-1.815c-.658-.3-.709-.562-.335-1.158.8-1.276,1.549-2.593,2.268-3.919.3-.547.532-.81,1.2-.473a12.576,12.576,0,0,0,4.231,1.155c.621.071.842.261.8.887C89.109,179.123,89.148,179.9,89.148,180.68Z" transform="translate(-60.609 -132.763)" fill="#fafafa"/><path d="M40.36,124.086c-.116-.537.084-.709.493-.682H41.1c1.1,0,2.389-.34,3.258.111s.448,1.914.815,2.9c.1.266.165.547.246.818.677,2.059.677,2.059-1.231,3.17-1.879,1.089-1.884,1.091-2.638-.931a18.647,18.647,0,0,1-1.19-5.384Z" transform="translate(-30.396 -92.907)" fill="#fafafa"/></g></g></svg>