<svg xmlns="http://www.w3.org/2000/svg" width="40.75" height="40.75" viewBox="0 0 40.75 40.75"><path d="M11.32,18.523H29.43V12.966a6.559,6.559,0,0,0-2.653-5.238,9.787,9.787,0,0,0-6.4-2.171,9.787,9.787,0,0,0-6.4,2.171,6.559,6.559,0,0,0-2.653,5.238v5.557ZM40.75,21.3v16.67a2.46,2.46,0,0,1-.991,1.968,3.676,3.676,0,0,1-2.406.81H3.4a3.676,3.676,0,0,1-2.406-.81A2.46,2.46,0,0,1,0,37.971V21.3a2.46,2.46,0,0,1,.991-1.968,3.676,3.676,0,0,1,2.406-.81H4.528V12.966A11.478,11.478,0,0,1,9.2,3.82,17.091,17.091,0,0,1,20.374,0,17.1,17.1,0,0,1,31.553,3.82a11.472,11.472,0,0,1,4.669,9.146v5.557h1.132a3.676,3.676,0,0,1,2.406.81A2.46,2.46,0,0,1,40.75,21.3Z" fill="#fafafa"/></svg>