<svg xmlns="http://www.w3.org/2000/svg" width="48.042" height="49.776" viewBox="0 0 48.042 49.776"><path d="M51.17-24.344A28.123,28.123,0,0,1,49.436-14.3a23.008,23.008,0,0,1-4.9,7.871,21.882,21.882,0,0,1-7.6,5.117A25.625,25.625,0,0,1,27.132.51,25.5,25.5,0,0,1,17.34-1.309,21.918,21.918,0,0,1,9.758-6.426a23.008,23.008,0,0,1-4.9-7.871A28.123,28.123,0,0,1,3.128-24.344,28.123,28.123,0,0,1,4.862-34.391a23.191,23.191,0,0,1,4.9-7.888A22,22,0,0,1,17.34-47.43a25.29,25.29,0,0,1,9.792-1.836,25.417,25.417,0,0,1,9.809,1.836,21.965,21.965,0,0,1,7.6,5.151,23.192,23.192,0,0,1,4.9,7.888A28.123,28.123,0,0,1,51.17-24.344Zm-6.766,0A24.761,24.761,0,0,0,43.18-32.4a17.044,17.044,0,0,0-3.468-6.035,15.049,15.049,0,0,0-5.44-3.791,18.468,18.468,0,0,0-7.14-1.326,18.375,18.375,0,0,0-7.106,1.326,15.211,15.211,0,0,0-5.457,3.791A16.905,16.905,0,0,0,11.084-32.4,24.761,24.761,0,0,0,9.86-24.344,24.607,24.607,0,0,0,11.084-16.3a16.927,16.927,0,0,0,3.485,6.018,15.03,15.03,0,0,0,5.457,3.774A18.585,18.585,0,0,0,27.132-5.2a18.679,18.679,0,0,0,7.14-1.309,14.871,14.871,0,0,0,5.44-3.774A17.066,17.066,0,0,0,43.18-16.3,24.607,24.607,0,0,0,44.4-24.344Z" transform="translate(-3.128 49.266)" fill="#fff"/></svg>