<svg xmlns="http://www.w3.org/2000/svg" width="40.75" height="40.75" viewBox="0 0 40.75 40.75"><path d="M0,14.621A10.814,10.814,0,0,1,1.193,9.637,12.819,12.819,0,0,1,4.488,5.559,22.3,22.3,0,0,1,9.327,2.547,26.226,26.226,0,0,1,15.216.636,32.325,32.325,0,0,1,21.649,0a26.374,26.374,0,0,1,9.36,1.629,17.079,17.079,0,0,1,7.034,4.739A10.44,10.44,0,0,1,40.75,13.4a17.678,17.678,0,0,1-.6,4.6,15.888,15.888,0,0,1-1.91,4.334A15.542,15.542,0,0,1,35.052,26a14.344,14.344,0,0,1-4.616,2.522,18.378,18.378,0,0,1-6.017.943,12.392,12.392,0,0,1-4.3-.783,6.036,6.036,0,0,1-3.056-2.155q-.318.955-.892,2.755T15.425,31.6q-.174.526-.653,1.739a10.19,10.19,0,0,1-.828,1.739q-.349.526-1.018,1.53a17.322,17.322,0,0,1-1.464,1.9q-.795.894-1.973,2.118l-.446.122-.287-.245q-.478-3.845-.478-4.6a21.555,21.555,0,0,1,.684-5.058q.684-2.805,2.119-7.039t1.655-4.972a7.568,7.568,0,0,1-1.018-4.139,5.551,5.551,0,0,1,1.655-3.821,5.479,5.479,0,0,1,4.2-1.787,4.31,4.31,0,0,1,3.024.992,3.258,3.258,0,0,1,1.082,2.51,12.545,12.545,0,0,1-1.4,4.677,12.527,12.527,0,0,0-1.4,4.58A3.038,3.038,0,0,0,20.312,24.4a5.842,5.842,0,0,0,3.47,1.017,8.493,8.493,0,0,0,3.248-.612,7.112,7.112,0,0,0,2.5-1.665,13.92,13.92,0,0,0,1.784-2.326,11.387,11.387,0,0,0,1.21-2.707,21.69,21.69,0,0,0,.637-2.718,15.086,15.086,0,0,0,.207-2.437,7.535,7.535,0,0,0-3.486-6.6,15.9,15.9,0,0,0-9.091-2.364A17.328,17.328,0,0,0,10.155,7.163a9.645,9.645,0,0,0-4.266,8.045,5.608,5.608,0,0,0,.4,2.082,6.4,6.4,0,0,0,.859,1.592q.462.588.859,1.114a1.667,1.667,0,0,1,.4.748,4.776,4.776,0,0,1-.478,1.787q-.478,1.1-1.177,1.1-.063,0-.542-.074a7.054,7.054,0,0,1-2.881-1.372,7.25,7.25,0,0,1-1.942-2.314A12.621,12.621,0,0,1,.35,17.229,10.262,10.262,0,0,1,0,14.621Z" fill="#fafafa"/></svg>