<svg xmlns="http://www.w3.org/2000/svg" width="41.798" height="31.853" viewBox="0 0 41.798 31.853"><path d="M41.219,81.314,27.286,95.247a1.994,1.994,0,0,1-3.4-1.41V85.876H12.606a1.986,1.986,0,0,1-1.99-1.99V75.923a1.986,1.986,0,0,1,1.99-1.99H23.886V65.971a2,2,0,0,1,3.4-1.41L41.219,78.494A2.007,2.007,0,0,1,41.219,81.314Zm-25.3,13.519V91.515a1,1,0,0,0-1-1H7.962a2.651,2.651,0,0,1-2.654-2.654V71.942a2.651,2.651,0,0,1,2.654-2.654h6.967a1,1,0,0,0,1-1V64.976a1,1,0,0,0-1-1H7.962A7.964,7.964,0,0,0,0,71.942V87.866a7.964,7.964,0,0,0,7.962,7.962h6.967A1,1,0,0,0,15.924,94.833Z" transform="translate(0 -63.979)" fill="#fafafa"/></svg>