<svg xmlns="http://www.w3.org/2000/svg" width="51.155" height="51" viewBox="0 0 51.155 51">
  <defs>
    <style>
      .cls-1, .cls-2 {
        fill: #fff;
      }

      .cls-2 {
        opacity: 0.27;
      }

      .cls-3 {
        fill: #fce1b6;
      }
    </style>
  </defs>
  <g id="Layer_2" data-name="Layer 2" transform="translate(0.001 0.004)">
    <g id="Layer_1" data-name="Layer 1" transform="translate(-0.001 -0.004)">
      <path id="Path_181" data-name="Path 181" class="cls-1" d="M.223,2.817A5.033,5.033,0,0,0,0,4.347V47.44a3.413,3.413,0,0,0,1.163,2.19A4.941,4.941,0,0,0,4.572,51H45.988a4.664,4.664,0,0,0,4.38-2.23,5.781,5.781,0,0,0,.785-2.957V10.521A4.617,4.617,0,0,0,46,5.9H21.209a.6.6,0,0,1-.6-.55C20.522,3.84,19.849-.214,14.785,0H4.3A4.089,4.089,0,0,0,.223,2.817Z" transform="translate(0.001 0.004)"/>
      <path id="Path_182" data-name="Path 182" class="cls-2" d="M0,131.36v29.9a3.413,3.413,0,0,0,1.163,2.19,4.941,4.941,0,0,0,3.411,1.366H45.989a4.664,4.664,0,0,0,4.38-2.23,5.781,5.781,0,0,0,.785-2.957V131.372l-6.66-.012Z" transform="translate(0 -113.818)"/>
      <path id="Path_183" data-name="Path 183" class="cls-3" d="M39.618,86.23H74.4a1.927,1.927,0,0,1,1.927,1.927v4.112H37.71V88.145a1.915,1.915,0,0,1,1.908-1.915Z" transform="translate(-32.674 -74.715)"/>
      <path id="Path_184" data-name="Path 184" d="M141.376,161.562c-.231.215-.362.331-.485.454-.98.975-1.943,1.968-2.938,2.924a1.482,1.482,0,0,1-2.537-.717,1.393,1.393,0,0,1,.4-1.335c2-2,3.991-4.018,6.009-6.009a1.465,1.465,0,0,1,2.219.055q2.9,2.892,5.8,5.794a1.545,1.545,0,1,1-2.183,2.165q-1.416-1.41-2.827-2.826c-.115-.115-.236-.22-.418-.39-.011.251-.025.426-.025.6v7.5a1.514,1.514,0,0,1-1.358,1.667,1.572,1.572,0,0,1-1.648-1.675v-7.546Z" transform="translate(-117.3 -135.511)"/>
      <path id="Path_185" data-name="Path 185" d="M115.869,271.82h14.987V270.4a1.52,1.52,0,1,1,3.038.017c0,.953,0,1.9,0,2.846a1.48,1.48,0,0,1-1.576,1.6q-8.888-.012-17.778-.032a1.513,1.513,0,0,1-1.647-1.649q-.008-1.35,0-2.7a1.493,1.493,0,1,1,2.973.016C115.873,270.933,115.869,271.362,115.869,271.82Z" transform="translate(-97.815 -232.93)"/>
    </g>
  </g>
</svg>
