<svg xmlns="http://www.w3.org/2000/svg" width="53.17" height="55.722" viewBox="0 0 53.17 55.722">
  <defs>
    <style>
      .cls-1 {
        fill: #fff;
      }
    </style>
  </defs>
  <g id="Layer_2" data-name="Layer 2" transform="translate(0 0.001)">
    <g id="Layer_1" data-name="Layer 1" transform="translate(0 -0.001)">
      <path id="Path_201" data-name="Path 201" class="cls-1" d="M22.515,41.969c1.009-3.194-.872-5.443-2.286-7.863A1.88,1.88,0,0,0,18.4,33.095q-6.967.032-13.936,0A2.217,2.217,0,0,0,2.508,34.21,12.177,12.177,0,0,0,.04,42.652C.3,46.065.088,49.518.1,52.946.11,54.647.46,55,2.133,55c6.208,0,12.419-.021,18.629.021,1.451,0,2.152-.591,1.908-1.987a5.06,5.06,0,0,1,2.557-5.565,26.349,26.349,0,0,0,2.289-1.911c-.414,3.206-.8,6.013-1.125,8.838-.07.609-.466.85-.853,1.143-2.526,1.926-5.047,3.861-7.6,5.741a3.23,3.23,0,0,0-1.4,2.17c-.683,3.6-1.524,7.174-2.255,10.764-.3,1.5-.219,2.941,1.219,3.922a3.047,3.047,0,0,0,4.778-1.828c.7-2.98,1.219-6.007,1.81-9.014A2.466,2.466,0,0,1,22.9,65.59c2.615-1.972,5.208-3.962,7.856-5.988,1.435,3.407,2.868,6.723,4.221,10.057A1.532,1.532,0,0,0,36.6,70.811c4.34.134,8.673.4,13.01.558a3.146,3.146,0,0,0,3.556-3.047c.037-1.828-1.377-3.163-3.45-3.252-2.874-.125-5.751-.271-8.624-.286a1.514,1.514,0,0,1-1.707-1.246,7.719,7.719,0,0,0-.689-1.828c-2.438-4.084-2.133-8.414-1.371-12.845.491-2.825.789-5.69,1.088-8.533a5.176,5.176,0,0,0-2.852-5.516c-2.03-.978-4.2-.469-6.068,1.277-2.164,1.993-4.361,3.98-6.54,5.97Zm-11.1-2.133h5.141c3.782,0,3.748,0,3.657,3.822-.021.887-.3,1.1-1.137,1.079-2.167-.049-4.334-.021-6.5,0-2.03,0-3.246,1.021-3.285,2.718-.043,1.774,1.161,2.862,3.291,2.892s4.236,0,6.351-.027c.8,0,1.307,0,1.3,1.085,0,1.018-.421,1.131-1.268,1.125q-7.561-.046-15.122,0c-.914,0-1.219-.2-1.2-1.161.055-3.477.067-6.954,0-10.432-.021-1.018.363-1.131,1.219-1.115,2.511.046,5.031.012,7.552.012ZM3.684,37.31c.454-.774.418-1.716,1.524-1.719,1.4,0,2.8.018,4.206,0,.585,0,.786.21.774.789s-.085.948-.8.948C7.545,37.291,5.7,37.31,3.684,37.31Zm15.35,0c-1.883,0-3.657-.024-5.4,0-.686,0-.975-.146-1-.914-.021-.865.436-.841,1.033-.826a23.308,23.308,0,0,0,3.026-.018c1.262-.122,2.005.335,2.34,1.777Z" transform="translate(0 -23.004)"/>
      <path id="Path_202" data-name="Path 202" class="cls-1" d="M69.81,14.793c1.185.68,2.505-.107,3.209.542s.609,1.938,1.317,2.773a4.876,4.876,0,0,0,5.181,1.475,4.594,4.594,0,0,0,3.352-4.34c.149-2.252.149-2.252-2.03-2.252-2.063,0-4.132.052-6.2,0C72.8,12.922,71.468,13.961,69.81,14.793Z" transform="translate(-48.535 -9.03)"/>
      <path id="Path_203" data-name="Path 203" class="cls-1" d="M83.4,3.483h3.782c.488,0,1.067.134,1.045-.673-.018-.7.119-1.524-.872-1.652C84.309.752,81.262.4,78.23.014c-.268-.034-.506-.034-.661.216-.387.609,1.131,3.233,1.9,3.246C80.78,3.5,82.091,3.483,83.4,3.483Z" transform="translate(-53.886 0.001)"/>
    </g>
  </g>
</svg>
