<svg xmlns="http://www.w3.org/2000/svg" width="32.75" height="60.75" viewBox="0 0 32.75 60.75"><path d="M38.034,15.268V47.089A11.778,11.778,0,0,1,26.125,58.661,11.778,11.778,0,0,1,14.216,47.089V13.821a7.269,7.269,0,0,1,7.443-7.232A7.269,7.269,0,0,1,29.1,13.821V47.089a2.979,2.979,0,0,1-5.955,0V19.607H18.682V47.089a7.269,7.269,0,0,0,7.443,7.232,7.269,7.269,0,0,0,7.443-7.232V13.821A11.778,11.778,0,0,0,21.659,2.25,11.778,11.778,0,0,0,9.75,13.821V47.089A16.1,16.1,0,0,0,26.125,63,16.1,16.1,0,0,0,42.5,47.089V15.268Z" transform="translate(-9.75 -2.25)" fill="#fafafa"/></svg>