<svg xmlns="http://www.w3.org/2000/svg" width="46.063" height="46.063" viewBox="0 0 46.063 46.063"><g transform="translate(-67 -1505)"><path d="M23.031,43.184A20.152,20.152,0,1,0,2.879,23.031,20.152,20.152,0,0,0,23.031,43.184Zm0,2.879A23.031,23.031,0,1,0,0,23.031,23.031,23.031,0,0,0,23.031,46.063Z" transform="translate(67 1505)" fill="#fafafa" fill-rule="evenodd"/><path d="M39.016,47.652a8.637,8.637,0,1,0-8.637-8.637A8.637,8.637,0,0,0,39.016,47.652Zm0,2.879A11.516,11.516,0,1,0,27.5,39.016,11.516,11.516,0,0,0,39.016,50.531Z" transform="translate(51.016 1489.016)" fill="#fafafa" fill-rule="evenodd"/><path d="M37.512,22.257l9.667-3.866V35.664L37.512,31.8a11.556,11.556,0,0,0,0-9.541ZM31.8,16.542l3.866-9.667H18.391l3.866,9.667a11.556,11.556,0,0,1,9.541,0ZM16.542,22.257,6.875,18.391V35.664L16.542,31.8a11.556,11.556,0,0,1,0-9.541Zm5.715,15.255L18.391,47.18H35.664L31.8,37.512a11.556,11.556,0,0,1-9.541,0Z" transform="translate(63.004 1501.004)" fill="#fafafa"/></g></svg>