<svg xmlns="http://www.w3.org/2000/svg" width="57.445" height="51.842" viewBox="0 0 57.445 51.842">
  <defs>
    <style>
      .cls-1 {
        fill: #fff;
      }
    </style>
  </defs>
  <g id="Layer_2" data-name="Layer 2" transform="translate(0 0.032)">
    <g id="Layer_1" data-name="Layer 1" transform="translate(0 -0.032)">
      <path id="Path_186" data-name="Path 186" class="cls-1" d="M57.525,255.227a2.818,2.818,0,0,1-1.983,1.937,3.63,3.63,0,0,1-.773.078H2.832A2.585,2.585,0,0,1,.09,254.509V232.76c1.657.375,3.253.735,4.85,1.1q9.263,2.107,18.527,4.2c.588.13.823.324.793.966-.061,1.156-.024,2.318-.015,3.477s.47,1.629,1.634,1.63h5.889c1.091,0,1.574-.47,1.587-1.564.014-1.252.024-2.5-.007-3.761-.011-.443.135-.6.564-.693q10.279-2.3,20.554-4.644c1.017-.235,2.036-.454,3.056-.679Z" transform="translate(-0.079 -205.4)"/>
      <path id="Path_187" data-name="Path 187" class="cls-1" d="M57.445,119.125c-1.958.454-3.914.912-5.877,1.357q-8.991,2.046-17.982,4.085c-.072.016-.146.021-.3.043v-1.966c0-1.426-.414-1.839-1.829-1.839H25.79c-1.114,0-1.6.481-1.621,1.6-.013.691-.013,1.382-.022,2.073,0,.033-.032.066-.066.128-2.006-.45-4.022-.9-6.034-1.355l-17.547-4c-.395-.083-.5-.221-.5-.612.016-2.734,0-5.459.011-8.188a2.565,2.565,0,0,1,2.641-2.662c.991-.018,1.982,0,2.972,0q24.257,0,48.512-.02c1.61,0,2.749.487,3.31,2.049Z" transform="translate(0 -95.1)"/>
      <path id="Path_188" data-name="Path 188" class="cls-1" d="M158.659,10.037H155.6c0-1.032.058-2.039-.02-3.037a6.084,6.084,0,0,0-.47-2.092,3.014,3.014,0,0,0-2.771-1.786c-2.483-.049-4.969-.034-7.454-.041-1.812,0-3.626.052-5.436-.013a3.657,3.657,0,0,0-4,3.988c.027.984,0,1.97,0,3.012h-2.468c-.183,0-.366-.015-.618-.027.132-2.172-.381-4.372.705-6.4A6.366,6.366,0,0,1,138.881,0c4.427-.048,8.856-.024,13.281-.009a6.552,6.552,0,0,1,6.492,6.331C158.689,7.55,158.659,8.779,158.659,10.037Z" transform="translate(-116.804 0.032)"/>
    </g>
  </g>
</svg>
