<svg xmlns="http://www.w3.org/2000/svg" width="59.702" height="43.214" viewBox="0 0 59.702 43.214">
  <defs>
    <style>
      .cls-1 {
        fill: #fff;
      }
    </style>
  </defs>
  <g id="Layer_2" data-name="Layer 2" transform="translate(0.012 0.015)">
    <g id="Layer_1" data-name="Layer 1" transform="translate(-0.012 -0.015)">
      <path id="Path_190" data-name="Path 190" class="cls-1" d="M22.951,36.713a8.016,8.016,0,0,0-3.265-5.5,7.882,7.882,0,0,0-5.222-1.576,8.2,8.2,0,0,0-7.6,7.074h-4.7A2.068,2.068,0,0,1,.308,35.677a2.356,2.356,0,0,1-.317-1.055c0-.082,0-.163,0-.24V2.352A2.372,2.372,0,0,1,.531.725,2.238,2.238,0,0,1,2.176-.011H31.985A2.6,2.6,0,0,1,33.5.38a2.159,2.159,0,0,1,.926,1.713V34.5a2.135,2.135,0,0,1-.816,1.77,2.008,2.008,0,0,1-1.257.451H23.014ZM14.913,17.5c-.091-.118-.132-.185-.185-.24-.628-.621-1.262-1.238-1.89-1.859l-2.224-2.219a1.036,1.036,0,0,0-.991-.324,1.53,1.53,0,0,0-.758.381c-.521.48-1.005,1.019-1.564,1.458a1.252,1.252,0,0,0-.254,1.746,5.385,5.385,0,0,0,.619.686q2.4,2.38,4.8,4.754c.48.48.959.993,1.439,1.466a1.3,1.3,0,0,0,.59.3,1.391,1.391,0,0,0,1.329-.465q5.656-5.644,11.3-11.3a2.008,2.008,0,0,0,.41-.621,1.2,1.2,0,0,0-.254-1.408c-.48-.5-.959-1.012-1.439-1.514a1.2,1.2,0,0,0-1.139-.35,1.8,1.8,0,0,0-.959.59q-4.318,4.344-8.667,8.691A1.765,1.765,0,0,0,14.913,17.5Z" transform="translate(0.012 0.015)"/>
      <path id="Path_191" data-name="Path 191" class="cls-1" d="M155.409,65.872a2.094,2.094,0,0,1-1.406-.48,2.36,2.36,0,0,1-.895-1.95V40.76a2.639,2.639,0,0,1,.281-1.331,2,2,0,0,1,1.809-1.082c3.6-.022,7.2-.014,10.794,0a2.7,2.7,0,0,1,1.833.784,15.714,15.714,0,0,1,2.025,2.413c1.346,1.849,2.687,3.7,4.039,5.541a14.032,14.032,0,0,1,1.66,2.84,6.342,6.342,0,0,1,.528,2.509V63.468a2.615,2.615,0,0,1-.319,1.362,2.01,2.01,0,0,1-1.708,1.027c-.849.043-1.7,0-2.569,0a7.829,7.829,0,0,0-3.327-5.625,8.156,8.156,0,0,0-12.744,5.625ZM172.2,51.88a2.1,2.1,0,0,0-.142-.458,15.184,15.184,0,0,0-.849-1.439q-2.322-3.26-4.675-6.5a1.326,1.326,0,0,0-1.1-.561h-5.419V51.88Z" transform="translate(-116.376 -29.135)"/>
      <path id="Path_192" data-name="Path 192" class="cls-1" d="M179.344,135.81a5.313,5.313,0,1,0,5.323,5.323A5.313,5.313,0,0,0,179.344,135.81Z" transform="translate(-132.29 -103.23)"/>
      <path id="Path_193" data-name="Path 193" class="cls-1" d="M40.1,141.186a5.308,5.308,0,1,1,5.277,5.311,5.308,5.308,0,0,1-5.277-5.311Z" transform="translate(-30.478 -103.283)"/>
    </g>
  </g>
</svg>
