<svg xmlns="http://www.w3.org/2000/svg" width="40.75" height="40.75" viewBox="0 0 40.75 40.75">
  <defs>
    <style>
      .cls-1 {
        fill: #fafafa;
      }
    </style>
  </defs>
  <path id="bxs-dashboard" class="cls-1" d="M6.764,27.139H20.347a2.264,2.264,0,0,0,2.264-2.264V6.764A2.264,2.264,0,0,0,20.347,4.5H6.764A2.264,2.264,0,0,0,4.5,6.764V24.875A2.264,2.264,0,0,0,6.764,27.139ZM4.5,42.986A2.264,2.264,0,0,0,6.764,45.25H20.347a2.264,2.264,0,0,0,2.264-2.264V33.93a2.264,2.264,0,0,0-2.264-2.264H6.764A2.264,2.264,0,0,0,4.5,33.93Zm22.639,0A2.264,2.264,0,0,0,29.4,45.25H42.986a2.264,2.264,0,0,0,2.264-2.264V27.139a2.264,2.264,0,0,0-2.264-2.264H29.4a2.264,2.264,0,0,0-2.264,2.264ZM29.4,20.347H42.986a2.264,2.264,0,0,0,2.264-2.264V6.764A2.264,2.264,0,0,0,42.986,4.5H29.4a2.264,2.264,0,0,0-2.264,2.264V18.083A2.264,2.264,0,0,0,29.4,20.347Z" transform="translate(-4.5 -4.5)"/>
</svg>
