<svg id="Layer_2" data-name="Layer 2" xmlns="http://www.w3.org/2000/svg" width="64.218" height="50.143" viewBox="0 0 64.218 50.143">
  <defs>
    <style>
      .cls-1 {
        fill: #fff;
      }
    </style>
  </defs>
  <g id="Layer_1" data-name="Layer 1">
    <path id="Path_189" data-name="Path 189" class="cls-1" d="M0,26.328A2.4,2.4,0,0,1,2.708,24.7c.685.054,1.375,0,2.166,0V13.21c0-1.852.78-2.632,2.624-2.637l4.248-.014c.035,0,.07-.03.171-.076V2.372A2.162,2.162,0,0,1,14.293,0H27.888a2.233,2.233,0,0,1,2.437,2.437c.014,2.467,0,4.933,0,7.4v.7h4.928V9.338a2.1,2.1,0,0,1,2.1-2.269c3.249-.035,6.531-.149,9.774.081a8.571,8.571,0,0,1,7.787,6.81c.6,2.407,1.2,4.811,1.784,7.221a1.264,1.264,0,0,0,.764.956c1.229.574,2.437,1.2,3.642,1.811a5.272,5.272,0,0,1,3.119,5.077c-.019,2.862,0,5.726,0,8.588a5.146,5.146,0,0,1-4.023,5.277,12.909,12.909,0,0,1-2.735.2.609.609,0,0,0-.69.514,9.168,9.168,0,0,1-17.537.089.709.709,0,0,0-.812-.6q-8.055.027-16.113,0a.7.7,0,0,0-.812.6A9.149,9.149,0,0,1,8.526,49.1a9.057,9.057,0,0,1-4.568-5.48c-.125-.4-.271-.563-.685-.514a3.387,3.387,0,0,1-.439,0A2.551,2.551,0,0,1,.03,41.5ZM35.22,29.02H4.3v8.123c.154-.244.241-.371.317-.506a8.924,8.924,0,0,1,8.737-4.849,9.011,9.011,0,0,1,8.1,6.363.748.748,0,0,0,.858.639c4.094-.024,8.19,0,12.284-.016.2,0,.4-.022.625-.035Zm4.332,7.936.108.035c.068-.125.138-.246.208-.368a8.852,8.852,0,0,1,8.488-4.844,8.958,8.958,0,0,1,8.055,5.55c.219.46.271,1.148.623,1.354.4.244,1.051.084,1.592.081.948,0,1.294-.338,1.3-1.273V29.033a1.281,1.281,0,0,0-.812-1.281c-1.408-.68-2.794-1.4-4.2-2.082a2.285,2.285,0,0,0-.95-.222q-6.891-.022-13.787,0c-.2,0-.4.019-.634.03Zm-16.283-12.3H35.2V14.943H23.269Zm29.009-3.5c-.574-2.25-1.083-4.44-1.7-6.6a4.263,4.263,0,0,0-4.237-3.173c-2.131-.032-4.264,0-6.4,0a3,3,0,0,0-.363.051v9.723Zm-33.371,3.52V14.929H9.189v9.747ZM12.726,45.828a4.89,4.89,0,1,0-4.89-4.89A4.89,4.89,0,0,0,12.726,45.828Zm40.126-4.819a4.884,4.884,0,1,0-4.968,4.811,4.89,4.89,0,0,0,4.968-4.811ZM16.2,10.527h9.747V4.346H16.2Z"/>
  </g>
</svg>
