<svg xmlns="http://www.w3.org/2000/svg" width="54.522" height="49.6" viewBox="0 0 54.522 49.6">
  <defs>
    <style>
      .cls-1 {
        fill: #fff;
      }
    </style>
  </defs>
  <g id="Layer_2" data-name="Layer 2" transform="translate(0.012 0.03)">
    <g id="Layer_1" data-name="Layer 1" transform="translate(-0.012 -0.03)">
      <path id="Path_239" data-name="Path 239" class="cls-1" d="M34.463,18.606c2.689-2.991,5.245-5.838,7.8-8.684,1.359-1.514,2.719-3.037,4.078-4.549.685-.764.919-.775,1.667-.114q1.631,1.427,3.227,2.863c.791.707.816,1.025.1,1.822q-5.036,5.6-10.082,11.186c-2.124,2.36-4.231,4.734-6.376,7.069a2.153,2.153,0,0,0-.587,1.6c.024,5.128-.041,10.256.044,15.384.052,3.1-1.8,4.407-4.372,4.388-8.739-.065-17.475-.024-26.214-.033A3.464,3.464,0,0,1,.067,46.1c-.1-3.274-.076-6.558-.076-9.84V18.842c0-3.959,0-7.92.027-11.882C.043,4.494,1.5,3.121,3.975,3.121c2.958,0,5.917-.035,8.872,0a2.247,2.247,0,0,0,2.017-1.112,7.507,7.507,0,0,0,.527-.919,2.062,2.062,0,0,1,3.717.1,5.381,5.381,0,0,0,1.1,1.474,1.857,1.857,0,0,0,1.153.419c2.991.035,5.982.109,8.951,0a3.878,3.878,0,0,1,4.111,4.1c-.071,3.5-.016,7-.014,10.5C34.414,17.923,34.438,18.168,34.463,18.606ZM25.939,31.094c-.111,0-.351-.027-.587-.027H14.766c-.242,0-.544.06-.718-.052-.272-.158-.6-.443-.609-.68s.343-.508.6-.677c.155-.1.421-.052.636-.052,3.69,0,7.379-.03,11.069,0,.587,0,.816-.163.895-.731a6.254,6.254,0,0,1,1.922-3.739c1.2-1.172,2.281-2.469,3.382-3.741a1.539,1.539,0,0,0,.359-.919q.041-6.716.022-13.432a1.724,1.724,0,0,0-1.979-1.93h-8.57V6.708c.574.049,1.088.09,1.6.136s1.028.092,1.536.163a2.661,2.661,0,0,1,2.556,2.4c.171.71-.022.9-.726.895-6.3-.019-12.592,0-18.886-.014-.313,0-.623-.03-.922-.046A2.924,2.924,0,0,1,9.8,6.9c.941-.079,1.884-.136,2.841-.2V5.112H4.211c-1.542,0-2.156.634-2.156,2.175V45.464c0,1.411.544,1.979,1.966,1.979H30.153c1.631,0,2.175-.566,2.175-2.213V31.214c-.34.092-.6.147-.843.231-1.232.419-2.447.881-3.692,1.256a9.788,9.788,0,0,1-1.683.207C26.05,32.356,26,31.79,25.939,31.094Zm4.606-3.535c.383-.348.742-.62,1.036-.946q6.822-7.586,13.63-15.186c.832-.927,1.659-1.86,2.491-2.79.329-.367.364-.816-.027-1.052a1.257,1.257,0,0,0-.987.092c-.291.136-.462.443-.68.685L32.853,22.992c-.924,1.028-1.871,2.039-2.752,3.1a1.359,1.359,0,0,0-.152.954c.019.169.324.3.6.517ZM18.244,2.023v-.4c-.351-.247-.674-.634-1.06-.71-.544-.114-.9.294-.96.856-.054.519.46,1.088.949.954A4.04,4.04,0,0,0,18.244,2.023Z" transform="translate(0.012 0.03)"/>
      <path id="Path_240" data-name="Path 240" class="cls-1" d="M183.269,11.929a20.259,20.259,0,0,1-1.447,1.457c-.465.381-.8-.079-1.109-.351q-1.743-1.523-3.459-3.072c-.571-.517-.56-.938,0-1.509.152-.155.3-.313.443-.476a.836.836,0,0,1,1.381-.106c1.2,1.088,2.447,2.145,3.643,3.236A4.717,4.717,0,0,1,183.269,11.929Z" transform="translate(-128.747 -5.493)"/>
      <path id="Path_241" data-name="Path 241" class="cls-1" d="M57.582,70.17h7.069c.508,0,1.088-.019,1.088.661s-.56.783-1.1.783H50.246c-.506,0-.946-.131-.946-.75s.479-.691.968-.691Z" transform="translate(-35.892 -51.083)"/>
      <path id="Path_242" data-name="Path 242" class="cls-1" d="M57.468,148.14H64.7c.5,0,1,.038,1.02.642s-.454.816-1,.816H50.26c-.489,0-.96-.092-.96-.726,0-.688.487-.734,1.017-.731C52.7,148.145,55.086,148.14,57.468,148.14Z" transform="translate(-35.892 -107.853)"/>
      <path id="Path_243" data-name="Path 243" class="cls-1" d="M55.418,60.922H50.453a4.022,4.022,0,0,1-.405,0c-.457-.041-.8-.22-.78-.742s.326-.71.816-.71H60.748c.517,0,.87.215.867.742s-.408.721-.9.723h-5.3Z" transform="translate(-35.868 -43.292)"/>
      <path id="Path_244" data-name="Path 244" class="cls-1" d="M55.32,138.863c-1.7,0-3.41.024-5.114-.024a1.305,1.305,0,0,1-.963-.5c-.291-.487.109-.93.816-.938,1.569-.016,3.14,0,4.709,0h5.767c.508,0,.976.09.992.688s-.457.778-1,.775Q57.92,138.855,55.32,138.863Z" transform="translate(-35.781 -100.028)"/>
      <path id="Path_245" data-name="Path 245" class="cls-1" d="M55.426,99.916H50.311c-.527,0-1.036-.052-1.041-.718s.487-.759,1.017-.759H60.516c.544,0,1.107.076,1.088.775,0,.65-.544.7-1.066.7Q57.984,99.912,55.426,99.916Z" transform="translate(-35.87 -71.666)"/>
      <path id="Path_246" data-name="Path 246" class="cls-1" d="M25.7,145.267c.158.68-.272.873-.916,1.044a7.425,7.425,0,0,1-4.535.054c-.84-.3-1.088-.851-.791-1.9a1.253,1.253,0,0,1,1.7-.794,3.342,3.342,0,0,0,2.806,0C24.956,143.238,25.709,143.961,25.7,145.267Z" transform="translate(-14.077 -104.506)"/>
      <path id="Path_247" data-name="Path 247" class="cls-1" d="M22.486,107.794c-.764-.131-1.384-.193-1.979-.351-1.126-.294-1.43-.914-1.1-1.99a1.586,1.586,0,0,1,2.113-.691,3.3,3.3,0,0,0,2.08-.024c.647-.2,1.373-.272,1.7.239a4.141,4.141,0,0,1,.313,1.9c0,.084-.272.245-.427.272C24.248,107.4,23.307,107.606,22.486,107.794Z" transform="translate(-14.035 -76.142)"/>
      <path id="Path_248" data-name="Path 248" class="cls-1" d="M22.409,68.758c-.731-.12-1.359-.177-1.95-.329-1.123-.288-1.444-.933-1.058-2.012.272-.772,1.058-1.011,2.007-.647a2.469,2.469,0,0,0,2.257-.063,1.213,1.213,0,0,1,1.669.3,4.317,4.317,0,0,1,.215,1.922c0,.065-.256.169-.405.2C24.2,68.361,23.257,68.564,22.409,68.758Z" transform="translate(-14.009 -47.688)"/>
      <path id="Path_249" data-name="Path 249" class="cls-1" d="M26.859,91.36a1.743,1.743,0,0,1,1.631,1.8,1.712,1.712,0,0,1-1.631,1.775,1.659,1.659,0,0,1-1.61-1.775A1.7,1.7,0,0,1,26.859,91.36Z" transform="translate(-18.381 -66.511)"/>
      <path id="Path_250" data-name="Path 250" class="cls-1" d="M25.2,54.322a1.761,1.761,0,0,1,1.585-1.833,1.783,1.783,0,0,1,1.669,1.773,1.694,1.694,0,0,1-1.612,1.792A1.617,1.617,0,0,1,25.2,54.322Z" transform="translate(-18.345 -38.21)"/>
      <path id="Path_251" data-name="Path 251" class="cls-1" d="M28.413,132.39A1.685,1.685,0,0,1,26.73,134.2a1.77,1.77,0,0,1,.106-3.527,1.631,1.631,0,0,1,1.577,1.721Z" transform="translate(-18.311 -95.132)"/>
    </g>
  </g>
</svg>
