<svg xmlns="http://www.w3.org/2000/svg" width="49.433" height="57.622" viewBox="0 0 49.433 57.622">
  <defs>
    <style>
      .cls-1 {
        fill: #fff;
      }
    </style>
  </defs>
  <g id="Layer_2" data-name="Layer 2" transform="translate(0.005)">
    <g id="Layer_1" data-name="Layer 1" transform="translate(-0.005)">
      <path id="Path_237" data-name="Path 237" class="cls-1" d="M70.218,0c1.172.219,2.363.371,3.508.669a9.291,9.291,0,0,1,6.933,6.679,23.141,23.141,0,0,1,.912,6.423,27.129,27.129,0,0,1-.318,6.213,15.422,15.422,0,0,1-11.86,12.391,7.344,7.344,0,0,1-4.892-.836,15.49,15.49,0,0,1-9.227-12.223,28.861,28.861,0,0,1,.518-11.371A9.523,9.523,0,0,1,63.632.466C64.548.272,65.473.153,66.4,0Zm9.339,13.232-1.2.206a20,20,0,0,1-9.021-.062,7.336,7.336,0,0,1-4.4-2.73c-.683-1.032-1.461-.918-2.379-.813-.13.014-.26.039-.388.062a6.829,6.829,0,0,0-4.971,3.31,1.257,1.257,0,0,0-.206.619,41.649,41.649,0,0,0,.206,5.158,13.594,13.594,0,0,0,8.115,10.773,5.93,5.93,0,0,0,3.856.679A12.893,12.893,0,0,0,76.84,25.3c2.676-3.582,3.107-7.69,2.722-12.067Z" transform="translate(-43.6)"/>
      <path id="Path_238" data-name="Path 238" class="cls-1" d="M24.717,157.844c.51-1.329,1.032-2.521,1.418-3.759a2.17,2.17,0,0,1,1.8-1.651,9.879,9.879,0,0,0,3.782-1.911,1.352,1.352,0,0,1,1.69-.1c3.376,1.9,6.751,3.8,10.158,5.639a8.4,8.4,0,0,1,3.634,4.143,30.916,30.916,0,0,1,2.22,8.024,1.913,1.913,0,0,1-.338,1.143,9.273,9.273,0,0,1-3.043,2.947,25.518,25.518,0,0,1-9.312,3.429,68.482,68.482,0,0,1-16.8.883,43.009,43.009,0,0,1-12.269-2.226,15.948,15.948,0,0,1-6.514-3.943,9.424,9.424,0,0,1-.6-.739,2.344,2.344,0,0,1-.485-2.034,32.231,32.231,0,0,1,2.6-8.253,7.448,7.448,0,0,1,3.01-3.24q5.29-2.913,10.55-5.881a1.081,1.081,0,0,1,1.3.085,12.261,12.261,0,0,0,4.614,2.228,1.238,1.238,0,0,1,.918.883c.458,1.265.951,2.517,1.432,3.774C24.531,157.439,24.6,157.582,24.717,157.844Zm14.735,5.678h-8.41v2.189c1.331.413,2.645.825,3.966,1.238a.879.879,0,0,0,.5,0c1.213-.365,2.424-.739,3.629-1.135a.524.524,0,0,0,.305-.365C39.47,164.822,39.452,164.188,39.452,163.522Z" transform="translate(0.005 -119.159)"/>
    </g>
  </g>
</svg>
