<svg xmlns="http://www.w3.org/2000/svg" width="64.752" height="64.679" viewBox="0 0 64.752 64.679">
  <defs>
    <style>
      .cls-1 {
        fill: none;
        stroke: #fafafa;
      }

      .cls-2 {
        fill: #fafafa;
      }
    </style>
  </defs>
  <g id="Layer_2" data-name="Layer 2" transform="translate(0.53 0.5)">
    <g id="Layer_1" data-name="Layer 1" transform="translate(-0.03)">
      <path id="Path_252" data-name="Path 252" class="cls-1" d="M29.473,0H34.2c.149.205.375.092.567.128a11.242,11.242,0,0,1,2.168.347,28,28,0,0,0-8.245,1.594A26.061,26.061,0,0,0,11.849,30.184a25.558,25.558,0,0,0,9.287,16.47,2.408,2.408,0,0,1,.878,1.615,15.407,15.407,0,0,1-.772,6.984,27.917,27.917,0,0,1-1.679,4.016,3.853,3.853,0,0,0,.439-.05A17.863,17.863,0,0,0,30.55,52.171a.659.659,0,0,1,.843-.347,24.084,24.084,0,0,0,11.383.262q15.839-3.719,20.181-19.5c.241-.871.262-1.785.588-2.628,0,.241.1.482.113.708a30.871,30.871,0,0,1-.4,6.312A31.012,31.012,0,0,1,53.4,55.253a31.125,31.125,0,0,1-25.848,8.132,30.679,30.679,0,0,1-18.021-8.84A31.338,31.338,0,0,1,.317,36.559,8.5,8.5,0,0,0-.03,34.434V29.227c.177-.078.12-.241.135-.375A30.878,30.878,0,0,1,5.063,14.571,31.508,31.508,0,0,1,27.108.347,14.118,14.118,0,0,0,29.473,0Z" transform="translate(0.03)"/>
      <path id="Path_253" data-name="Path 253" class="cls-1" d="M41.717.666a25.636,25.636,0,0,1,9.273,1.48Q65.44,7.644,68.167,22.9a19.126,19.126,0,0,1,.064,6.786.708.708,0,0,0,.1.475c-.326.843-.347,1.757-.588,2.628Q63.429,48.531,47.526,52.257a24.085,24.085,0,0,1-11.383-.262.659.659,0,0,0-.843.347A17.863,17.863,0,0,1,24.752,59.39a3.854,3.854,0,0,1-.439.05,27.917,27.917,0,0,0,1.714-4,15.407,15.407,0,0,0,.808-6.963,2.408,2.408,0,0,0-.878-1.615,25.558,25.558,0,0,1-9.322-16.491A26.061,26.061,0,0,1,33.472,2.26,28,28,0,0,1,41.717.666ZM46.4,32.656V26.068a2.076,2.076,0,0,0-2.288-2.274H36.149a2.125,2.125,0,1,0-.1,4.179,2.2,2.2,0,0,1,2.408,2.508v8.5a2.182,2.182,0,0,1-2.408,2.493,2.112,2.112,0,1,0,.021,4.222H48.758a2.068,2.068,0,0,0,2.189-2.054,2.125,2.125,0,0,0-2.125-2.168,2.15,2.15,0,0,1-2.394-2.486c-.035-2.1-.028-4.215-.028-6.333ZM42.411,20.529a5.887,5.887,0,1,0-4.181-1.714,5.915,5.915,0,0,0,4.181,1.714Z" transform="translate(-4.755 -0.192)"/>
      <path id="Path_254" data-name="Path 254" class="cls-2" d="M53.475,42.181v6.375c0,1.672.708,2.423,2.394,2.486a2.125,2.125,0,0,1,2.125,2.168,2.068,2.068,0,0,1-2.189,2.054H43.119a2.112,2.112,0,1,1-.021-4.222,2.182,2.182,0,0,0,2.408-2.493v-8.5A2.2,2.2,0,0,0,43.1,37.541a2.125,2.125,0,1,1,.1-4.179H51.18a2.076,2.076,0,0,1,2.288,2.274C53.49,37.789,53.475,39.985,53.475,42.181Z" transform="translate(-11.831 -9.716)"/>
      <path id="Path_255" data-name="Path 255" class="cls-2" d="M50.695,23.84A5.915,5.915,0,1,1,56.61,17.9a5.915,5.915,0,0,1-5.915,5.936Z" transform="translate(-13.038 -3.503)"/>
    </g>
  </g>
</svg>
